<?xml version="1.0" encoding="UTF-8"?>
<svg width="300px" height="300px" viewBox="0 0 300 300" version="1.1" xmlns="http://www.w3.org/2000/svg" xmlns:xlink="http://www.w3.org/1999/xlink">
    <title>Logo/Crypto/Bitcoine</title>
    <defs>
        <circle id="path-1" cx="150" cy="150" r="150"></circle>
    </defs>
    <g id="Logo/Crypto/Bitcoine" stroke="none" stroke-width="1" fill="none" fill-rule="evenodd">
        <mask id="mask-2" fill="white">
            <use xlink:href="#path-1"></use>
        </mask>
        <use id="bg" fill="#F3F3F3" xlink:href="#path-1"></use>
        <g id="bitcoin-btc-logo" mask="url(#mask-2)" fill-rule="nonzero">
            <path d="M295.511663,186.285784 C275.47583,266.64374 194.077145,315.548001 113.700636,295.509286 C33.3578571,275.475702 -15.5518946,194.081021 4.49273697,113.729665 C24.5197701,33.362911 105.918456,-15.5450167 186.270034,4.48856675 C266.640676,24.5221502 315.547495,105.925629 295.509463,186.287251 L295.510929,186.285784 L295.511663,186.285784 Z" id="Path" fill="#F7931A"></path>
            <path d="M221.623792,131.381751 C224.619418,111.417181 209.370563,100.685472 188.518887,93.526356 L195.283322,66.4825979 L178.767653,62.3805701 L172.182719,88.7123031 C167.840827,87.6328993 163.381964,86.6158252 158.950321,85.6075506 L165.583073,59.1020277 L149.077703,55 L142.309589,82.0349587 C138.716603,81.2195395 135.18762,80.4136531 131.763837,79.5645026 L131.782964,79.4794408 L109.007525,73.810371 L104.614137,91.3932136 C104.614137,91.3932136 116.867366,94.1929172 116.609147,94.3652405 C123.297074,96.0290769 124.506506,100.44202 124.30567,103.939816 L116.600319,134.749022 C117.060845,134.865615 117.658205,135.034272 118.31736,135.298256 C117.766348,135.161864 117.180023,135.013006 116.571628,134.867815 L105.771337,178.027101 C104.954014,180.05245 102.87944,183.091939 98.2035557,181.93774 C98.3690803,182.176793 86.1997172,178.95178 86.1997172,178.95178 L78,197.795883 L99.4924401,203.136438 C103.490777,204.135913 107.408926,205.181586 111.267487,206.164929 L104.433163,233.518869 L120.929705,237.620896 L127.697819,210.557339 C132.2045,211.776802 136.578026,212.90167 140.859594,213.962008 L134.114285,240.897972 L150.63069,245 L157.464279,217.69739 C185.626989,223.010081 206.803093,220.868139 215.716405,195.477218 C222.898698,175.034542 215.358872,163.243229 200.542588,155.553943 C211.334051,153.073221 219.462409,145.998433 221.629677,131.383951 L221.624527,131.380285 L221.623792,131.381751 Z M183.889349,184.124412 C178.785309,204.567088 144.254686,193.516399 133.059342,190.745293 L142.128615,154.506071 C153.323223,157.291842 189.223653,162.804721 183.890085,184.124412 L183.889349,184.124412 Z M188.997068,131.085502 C184.341047,149.680285 155.60084,140.233302 146.277763,137.916837 L154.500286,105.050018 C163.823363,107.366483 193.847305,111.689965 188.99854,131.085502 L188.997068,131.085502 Z" id="Shape" fill="#FFFFFF"></path>
        </g>
    </g>
</svg>