<?xml version="1.0" encoding="UTF-8"?>
<svg width="300px" height="300px" viewBox="0 0 300 300" version="1.1" xmlns="http://www.w3.org/2000/svg" xmlns:xlink="http://www.w3.org/1999/xlink">
    <title>Logo/Crypto/Tron</title>
    <defs>
        <circle id="path-1" cx="150" cy="150" r="150"></circle>
    </defs>
    <g id="Logo/Crypto/Tron" stroke="none" stroke-width="1" fill="none" fill-rule="evenodd">
        <mask id="mask-2" fill="white">
            <use xlink:href="#path-1"></use>
        </mask>
        <use id="bg" fill="#D63649" xlink:href="#path-1"></use>
        <g id="tron-trx-logo" mask="url(#mask-2)" fill="#FFFFFF" fill-rule="nonzero">
            <g transform="translate(60.000000, 62.000000)" id="Shape">
                <path d="M192.003125,61.455 C182.440625,52.625625 169.2125,39.1425 158.43875,29.58 L157.80125,29.13375 C156.740552,28.2819805 155.544616,27.6139802 154.263125,27.1575 L154.263125,27.1575 C128.285,22.3125 7.383125,-0.286875 5.024375,8.37108161e-14 C4.36344073,0.0925651809 3.73168452,0.332196846 3.175625,0.70125 L2.57,1.179375 C1.82426618,1.93672749 1.25786862,2.85167739 0.9125,3.856875 L0.753125,4.27125 L0.753125,6.534375 L0.753125,6.885 C14.36375,44.784375 68.105,168.9375 78.6875,198.07125 C79.325,200.0475 80.53625,203.80875 82.799375,204 L83.309375,204 C84.520625,204 89.684375,197.17875 89.684375,197.17875 C89.684375,197.17875 181.994375,85.23375 191.33375,73.3125 C192.542658,71.8440508 193.609914,70.2645118 194.52125,68.595 C194.994417,65.9378979 194.038482,63.2273994 192.003125,61.455 Z M113.3675,74.491875 L152.765,41.82 L175.874375,63.1125 L113.3675,74.491875 Z M98.0675,72.35625 L30.2375,16.76625 L139.983125,37.006875 L98.0675,72.35625 Z M104.1875,86.923125 L173.61125,75.735 L94.2425,171.36 L104.1875,86.923125 Z M21.025625,22.3125 L92.39375,82.875 L82.06625,171.42375 L21.025625,22.3125 Z"></path>
            </g>
        </g>
    </g>
</svg>