<svg id="Layer_1" data-name="Layer 1" xmlns="http://www.w3.org/2000/svg" viewBox="0 0 113.39 113.39"><defs><style>.cls-1{fill:#1d1d1b;}.cls-2{fill:#e20e17;}.cls-3{fill:#fff;}</style></defs><path class="cls-1" d="M94.6,88.73H17.15A5.75,5.75,0,0,1,11.41,83V39.2A14.67,14.67,0,0,1,26.07,24.54H94.6a5.76,5.76,0,0,1,5.75,5.75V83A5.75,5.75,0,0,1,94.6,88.73ZM26.07,26.18a13,13,0,0,0-13,13V83a4.11,4.11,0,0,0,4.1,4.1H94.6A4.11,4.11,0,0,0,98.7,83V30.29a4.11,4.11,0,0,0-4.1-4.11Z"/><path class="cls-1" d="M94.6,83.67h-.48v-.82h.34V81.41h.82V83A.7.7,0,0,1,94.6,83.67Zm-3,0H89.15v-.82h2.49Zm-5,0H84.19v-.82h2.48Zm-5,0H79.23v-.82h2.48Zm-5,0H74.26v-.82h2.48Zm-5,0H69.3v-.82h2.48Zm-5,0H64.33v-.82h2.49Zm-5,0H59.37v-.82h2.48Zm-5,0H54.4v-.82h2.49Zm-5,0H49.44v-.82h2.48Zm-5,0H44.48v-.82H47Zm-5,0H39.51v-.82H42Zm-5,0H34.55v-.82H37Zm-5,0H29.58v-.82h2.49Zm-5,0H24.62v-.82H27.1Zm-5,0H19.65v-.82h2.49Zm-5,0h0a.7.7,0,0,1-.68-.68V80.93h.82V83a.13.13,0,0,0-.14-.14Zm78.11-4.74h-.82V76.45h.82Zm-78-.48h-.82V76h.82Zm78-4.49h-.82V71.48h.82Zm-78-.48h-.82V71h.82Zm78-4.48h-.82V66.52h.82Zm-78-.48h-.82V66h.82Zm78-4.49h-.82V61.55h.82Zm-78-.48h-.82V61.07h.82Zm78-4.48h-.82V56.59h.82Zm-78-.48h-.82V56.11h.82Zm78-4.48h-.82V51.62h.82Zm-78-.49h-.82V51.14h.82Zm78-4.48h-.82V46.66h.82Zm-78-.48h-.82V46.18h.82Zm78-4.48h-.82V41.7h.82Zm-78-.48h-.82V41.21h.82Zm78-4.49h-.82V36.73h.82Zm-78-.46-.82,0A9.5,9.5,0,0,1,17,36.17l.78.26A8.72,8.72,0,0,0,17.31,38.75Zm1.48-4.44-.68-.46a10.11,10.11,0,0,1,1.71-1.93l.54.63A8.76,8.76,0,0,0,18.79,34.31Zm76.49-.06h-.82V31.77h.82Zm-72.94-3L22,30.52a9.86,9.86,0,0,1,2.47-.78l.14.81A8.61,8.61,0,0,0,22.34,31.26ZM94,30.43H91.54v-.82H94Zm-5,0H86.57v-.82h2.48Zm-5,0H81.61v-.82h2.48Zm-5,0H76.64v-.82h2.49Zm-5,0H71.68v-.82h2.48Zm-5,0H66.72v-.82H69.2Zm-5,0H61.75v-.82h2.48Zm-5,0H56.79v-.82h2.48Zm-5,0H51.82v-.82H54.3Zm-5,0H46.86v-.82h2.48Zm-5,0H41.89v-.82h2.49Zm-5,0H36.93v-.82h2.48Zm-5,0H32v-.82h2.48Zm-5,0H27v-.82h2.48Z"/><path class="cls-1" d="M13.05,48H11.41V34.37A14.67,14.67,0,0,1,26.07,19.71H94.6a5.76,5.76,0,0,1,5.75,5.75v15H98.7v-15a4.11,4.11,0,0,0-4.1-4.11H26.07a13,13,0,0,0-13,13Z"/><path class="cls-2" d="M11.41,41.53S13,44.74,15.76,45H30V68.42H17.53a6.3,6.3,0,0,1-6-4.18l-.12-.4V41.53Z"/><path class="cls-3" d="M12.78,45.41h-.41v-1l.33.27a4.29,4.29,0,0,0,.48.36l-.24.34-.16-.12Z"/><path class="cls-3" d="M27.07,46.34H25.89v-.41h1.18Zm-2.37,0H23.52v-.41H24.7Zm-2.37,0H21.15v-.41h1.18Zm-2.37,0H18.78v-.41H20Zm-2.37,0H16.41v-.41h1.18Zm-2.4-.06A5.68,5.68,0,0,1,14,45.93l.17-.38a4.76,4.76,0,0,0,1.08.32Z"/><polygon class="cls-3" points="29.09 46.75 28.67 46.75 28.67 46.34 28.26 46.34 28.26 45.93 29.09 45.93 29.09 46.75"/><path class="cls-3" d="M29.08,65.47h-.41V64.3h.41Zm0-2.34h-.41V62h.41Zm0-2.34h-.41V59.62h.41Zm0-2.34h-.41V57.28h.41Zm0-2.34h-.41V54.94h.41Zm0-2.34h-.41V52.6h.41Zm0-2.34h-.41V50.26h.41Zm0-2.34h-.41V47.92h.41Z"/><polygon class="cls-3" points="29.09 67.46 28.26 67.46 28.26 67.05 28.67 67.05 28.67 66.64 29.09 66.64 29.09 67.46"/><path class="cls-3" d="M27,67.46H25.81v-.41H27Zm-2.45,0H23.36v-.41h1.23Zm-2.46,0H20.91v-.41h1.22Zm-2.45,0H18.46v-.41h1.22Zm-2.46,0A5.19,5.19,0,0,1,16,67.24l.11-.39a5.11,5.11,0,0,0,1.16.19Zm-2.42-.7a5.13,5.13,0,0,1-1-.75l.28-.3a5,5,0,0,0,.95.69ZM13,65a5,5,0,0,1-.52-1.09l0-.07.39-.12,0,.06a5,5,0,0,0,.47,1Zm-.18-2.44h-.41V61.35h.41Zm0-2.45h-.41V58.9h.41Zm0-2.45h-.41V56.45h.41Zm0-2.46h-.41V54h.41Zm0-2.45h-.41V51.55h.41Zm0-2.45h-.41V49.09h.41Zm0-2.45h-.41V46.64h.41Z"/></svg>